<?xml version="1.0" encoding="utf-8"?>
<!-- Generator: Adobe Illustrator 25.3.1, SVG Export Plug-In . SVG Version: 6.00 Build 0)  -->
<svg version="1.1" id="Layer_1" xmlns="http://www.w3.org/2000/svg" xmlns:xlink="http://www.w3.org/1999/xlink" x="0px" y="0px"
	 viewBox="0 0 1200 800" style="enable-background:new 0 0 1200 800;" xml:space="preserve">
<path style="fill:#1877F2;" d="M866.67,400c0-147.28-119.39-266.67-266.67-266.67c-147.28,0-266.67,119.39-266.67,266.67
	c0,133.1,97.52,243.42,225,263.43V477.08h-67.71V400h67.71v-58.75c0-66.83,39.81-103.75,100.72-103.75
	c29.18,0,59.69,5.21,59.69,5.21v65.62h-33.63c-33.13,0-43.46,20.56-43.46,41.64V400h73.96l-11.82,77.08h-62.14v186.34
	C769.15,643.42,866.67,533.1,866.67,400"/>
<path style="fill:#1877F2;" d="M333.33,133.33"/>
</svg>
