<?xml version="1.0" encoding="utf-8"?>
<!-- Generator: Adobe Illustrator 25.3.1, SVG Export Plug-In . SVG Version: 6.00 Build 0)  -->
<svg version="1.1" id="Layer_1" xmlns="http://www.w3.org/2000/svg" xmlns:xlink="http://www.w3.org/1999/xlink" x="0px" y="0px"
	 viewBox="0 0 195.04 68.57" style="enable-background:new 0 0 195.04 68.57;" xml:space="preserve">
<g id="Layer_2_1_">
	<g id="Layer_1-2">
		<path style="fill:#F56F1D;" d="M178.57,68.55L0,68.6V0h195v54.38L178.57,68.55z"/>
		
			<linearGradient id="SVGID_1_" gradientUnits="userSpaceOnUse" x1="175.4538" y1="475.0274" x2="186.9938" y2="491.7474" gradientTransform="matrix(1 0 0 1 0 -428)">
			<stop  offset="0" style="stop-color:#FFFFFF"/>
			<stop  offset="0.03" style="stop-color:#F57B31"/>
			<stop  offset="0.72" style="stop-color:#FDAA77"/>
		</linearGradient>
		<path style="fill:url(#SVGID_1_);" d="M195,54.42l-16.45,14.17h-5.21c0.04-5.91,0.08-11.81,0.13-17.71l21.57-0.1
			C195,52,195,53.21,195,54.42z"/>
		<g style="enable-background:new    ;">
			<path style="fill:#FFFFFF;" d="M38.44,40.94h-5.96v10.09h-5.83V22.96h12.23c2.82,0,5.07,0.72,6.74,2.17s2.51,3.69,2.51,6.72
				c0,3.31-0.84,5.66-2.51,7.03S41.55,40.94,38.44,40.94z M37.95,27.84h-5.47v8.27h5.47c1.38,0,2.46-0.34,3.23-1.01
				s1.15-1.74,1.15-3.2s-0.38-2.5-1.15-3.12C40.41,28.15,39.33,27.84,37.95,27.84z"/>
			<path style="fill:#FFFFFF;" d="M73.65,25.65c0.61,0.71,1.09,1.5,1.45,2.36c0.35,0.86,0.53,1.85,0.53,2.95
				c0,1.33-0.33,2.64-1,3.93c-0.67,1.29-1.78,2.2-3.32,2.73c1.29,0.52,2.21,1.26,2.75,2.22c0.54,0.96,0.81,2.42,0.81,4.39v1.89
				c0,1.28,0.05,2.15,0.15,2.61c0.15,0.72,0.51,1.26,1.07,1.6v0.71h-6.46c-0.18-0.62-0.3-1.12-0.38-1.5
				c-0.15-0.79-0.23-1.59-0.25-2.42l-0.04-2.61c-0.03-1.79-0.35-2.98-0.98-3.58c-0.63-0.6-1.81-0.9-3.53-0.9H58.4v11.01h-5.73V22.96
				h13.76c1.97,0.04,3.48,0.28,4.54,0.72C72.02,24.13,72.92,24.78,73.65,25.65z M58.4,27.84v7.54h6.65c1.32,0,2.31-0.15,2.97-0.46
				c1.17-0.53,1.75-1.59,1.75-3.16c0-1.7-0.56-2.84-1.69-3.43c-0.63-0.33-1.59-0.5-2.86-0.5L58.4,27.84L58.4,27.84z"/>
			<path style="fill:#FFFFFF;" d="M102.31,48.54c-2.12,2.18-5.19,3.28-9.2,3.28s-7.08-1.09-9.2-3.28
				c-2.84-2.68-4.27-6.54-4.27-11.58c0-5.14,1.42-9,4.27-11.58c2.12-2.18,5.19-3.28,9.2-3.28s7.08,1.09,9.2,3.28
				c2.83,2.58,4.25,6.44,4.25,11.58C106.56,42,105.14,45.86,102.31,48.54z M100.69,36.96c0-3.15-0.68-5.58-2.05-7.3
				s-3.21-2.58-5.53-2.58s-4.18,0.86-5.56,2.57c-1.38,1.71-2.08,4.15-2.08,7.31s0.69,5.6,2.08,7.31c1.38,1.71,3.24,2.57,5.56,2.57
				s4.17-0.86,5.53-2.57C100.01,42.56,100.69,40.12,100.69,36.96z"/>
			<path style="fill:#FFFFFF;" d="M129.64,22.96h8.44v28.07h-5.46V32.04c0-0.54,0.01-1.31,0.02-2.29c0.01-0.98,0.02-1.74,0.02-2.28
				l-5.31,23.56h-5.69l-5.28-23.56c0,0.53,0.01,1.29,0.02,2.28c0.01,0.98,0.02,1.75,0.02,2.29v18.99h-5.46V22.96h8.53l5.1,22.07
				L129.64,22.96z"/>
			<path style="fill:#FFFFFF;" d="M165.13,48.54c-2.12,2.18-5.19,3.28-9.2,3.28s-7.08-1.09-9.2-3.28
				c-2.84-2.68-4.27-6.54-4.27-11.58c0-5.14,1.42-9,4.27-11.58c2.12-2.18,5.19-3.28,9.2-3.28s7.08,1.09,9.2,3.28
				c2.83,2.58,4.25,6.44,4.25,11.58C169.38,42,167.97,45.86,165.13,48.54z M163.52,36.96c0-3.15-0.68-5.58-2.05-7.3
				c-1.37-1.72-3.21-2.58-5.53-2.58s-4.18,0.86-5.56,2.57c-1.38,1.71-2.08,4.15-2.08,7.31s0.69,5.6,2.08,7.31
				c1.38,1.71,3.24,2.57,5.56,2.57s4.17-0.86,5.53-2.57S163.52,40.12,163.52,36.96z"/>
		</g>
	</g>
</g>
</svg>
